<svg width="150" height="150" viewBox="0 0 150 150" fill="none" xmlns="http://www.w3.org/2000/svg">
<g id="LogoSymbol">
<path id="Vector" d="M43.3333 50.0002C43.3333 41.5835 46.5833 33.5002 52.3333 27.7502C58.0833 22.0002 66.1667 18.7502 74.5833 18.7502C83 18.7502 91.0833 22.0002 96.8333 27.7502C102.583 33.5002 105.833 41.5835 105.833 50.0002C105.833 58.4168 102.583 66.5002 96.8333 72.2502C91.0833 78.0002 83 81.2502 74.5833 81.2502C66.1667 81.2502 58.0833 78.0002 52.3333 72.2502C46.5833 66.5002 43.3333 58.4168 43.3333 50.0002Z" fill="#6A0DAD"/>
<path id="Vector_2" d="M74.5833 50.0002C74.5833 58.4168 77.8333 66.5002 83.5833 72.2502C89.3333 78.0002 97.4167 81.2502 105.833 81.2502C114.25 81.2502 122.333 78.0002 128.083 72.2502C133.833 66.5002 137.083 58.4168 137.083 50.0002C137.083 41.5835 133.833 33.5002 128.083 27.7502C122.333 22.0002 114.25 18.7502 105.833 18.7502C97.4167 18.7502 89.3333 22.0002 83.5833 27.7502C77.8333 33.5002 74.5833 41.5835 74.5833 50.0002Z" fill="#6A0DAD"/>
<path id="Vector_3" d="M74.5833 81.2502C66.1667 81.2502 58.0833 84.5002 52.3333 90.2502C46.5833 96.0002 43.3333 104.084 43.3333 112.5C43.3333 120.917 46.5833 129 52.3333 134.75C58.0833 140.5 66.1667 143.75 74.5833 143.75C83 143.75 91.0833 140.5 96.8333 134.75C102.583 129 105.833 120.917 105.833 112.5C105.833 104.084 102.583 96.0002 96.8333 90.2502C91.0833 84.5002 83 81.2502 74.5833 81.2502Z" fill="#6A0DAD"/>
<path id="Vector_4" d="M105.833 81.2502C97.4167 81.2502 89.3333 84.5002 83.5833 90.2502C77.8333 96.0002 74.5833 104.084 74.5833 112.5C74.5833 120.917 77.8333 129 83.5833 134.75C89.3333 140.5 97.4167 143.75 105.833 143.75C114.25 143.75 122.333 140.5 128.083 134.75C133.833 129 137.083 120.917 137.083 112.5C137.083 104.084 133.833 96.0002 128.083 90.2502C122.333 84.5002 114.25 81.2502 105.833 81.2502Z" fill="#6A0DAD"/>
<path id="Vector_5" d="M12.9167 112.5C12.9167 104.084 16.1667 96.0002 21.9167 90.2502C27.6667 84.5002 35.75 81.2502 44.1667 81.2502C52.5833 81.2502 60.6667 84.5002 66.4167 90.2502C72.1667 96.0002 75.4167 104.084 75.4167 112.5C75.4167 120.917 72.1667 129 66.4167 134.75C60.6667 140.5 52.5833 143.75 44.1667 143.75C35.75 143.75 27.6667 140.5 21.9167 134.75C16.1667 129 12.9167 120.917 12.9167 112.5Z" fill="#6A0DAD"/>
</g>
</svg>